{"title":"36 Czas honoru S03E10 XviD","uid":5960188,"size":431059695,"categoryP":"video","categoryS":"tv_shows","magnet":"?xt=urn:btih:b42efe722c316651d6a4c8eb737edec22e4153dc&amp;dn=36+Czas+honoru+S03E10+XviD&amp;tr=udp%3A%2F%2Ftracker.openbittorrent.com%3A80&amp;tr=udp%3A%2F%2Fopen.demonii.com%3A1337&amp;tr=udp%3A%2F%2Ftracker.coppersurfer.tk%3A6969&amp;tr=udp%3A%2F%2Fexodus.desync.com%3A6969","seeders":0,"leechers":0,"uploader":"kisielm","files":2,"time":1289921774,"description":"Format                           : AVI\nFormat/Info                      : Audio Video Interleave\nFile size                        : 411 MiB\nDuration                         : 44mn 13s\nOverall bit rate                 : 1 300 Kbps\n\nVideo\nFormat                           : MPEG-4 Visual\nFormat profile                   : Simple@L3\nFormat settings, BVOP            : No\nFormat settings, QPel            : No\nFormat settings, GMC             : No warppoints\nFormat settings, Matrix          : Default (H.263)\nCodec ID/Hint                    : XviD\nBit rate                         : 1 095 Kbps\nWidth                            : 640 pixels\nHeight                           : 368 pixels\nDisplay aspect ratio             : 16:9\nFrame rate                       : 25.000 fps\nColor space                      : YUV\nChroma subsampling               : 4:2:0\nBit depth                        : 8 bits\nScan type                        : Progressive\nBits/(Pixel*Frame)               : 0.186\nStream size                      : 346 MiB (84%)\n\nAudio\nID                               : 1\nFormat                           : MPEG Audio\nFormat version                   : Version 1\nFormat profile                   : Layer 3\nMode                             : Joint stereo\nCodec ID/Hint                    : MP3\nBit rate mode                    : Constant\nBit rate                         : 192 Kbps\nChannel(s)                       : 2 channels\nSampling rate                    : 48.0 KHz\nStream size                      : 60.7 MiB (15%)\n","torrent":{"xt":"urn:btih:b42efe722c316651d6a4c8eb737edec22e4153dc","amp;dn":"36+Czas+honoru+S03E10+XviD","amp;tr":["udp%3A%2F%2Ftracker.openbittorrent.com%3A80","udp%3A%2F%2Fopen.demonii.com%3A1337","udp%3A%2F%2Ftracker.coppersurfer.tk%3A6969","udp%3A%2F%2Fexodus.desync.com%3A6969"],"infoHash":"b42efe722c316651d6a4c8eb737edec22e4153dc","infoHashBuffer":{"type":"Buffer","data":[180,46,254,114,44,49,102,81,214,164,200,235,115,126,222,194,46,65,83,220]},"announce":[],"urlList":[]}}